<?xml version="1.0" encoding="UTF-8" standalone="no"?>
<!-- Created with Inkscape (http://www.inkscape.org/) -->

<svg
   xmlns:dc="http://purl.org/dc/elements/1.1/"
   xmlns:cc="http://creativecommons.org/ns#"
   xmlns:rdf="http://www.w3.org/1999/02/22-rdf-syntax-ns#"
   xmlns:svg="http://www.w3.org/2000/svg"
   xmlns="http://www.w3.org/2000/svg"
   xmlns:sodipodi="http://sodipodi.sourceforge.net/DTD/sodipodi-0.dtd"
   xmlns:inkscape="http://www.inkscape.org/namespaces/inkscape"
   width="60"
   height="30"
   id="svg4017"
   version="1.1"
   inkscape:version="0.48.5 r10040"
   sodipodi:docname="mute.svg"
   inkscape:export-filename="C:\Users\ruben\Dropbox\Datamatiker\casual games\CasualGamesExam\lib\media\sprites\mute.png"
   inkscape:export-xdpi="90"
   inkscape:export-ydpi="90">
  <defs
     id="defs4019" />
  <sodipodi:namedview
     id="base"
     pagecolor="#ffffff"
     bordercolor="#666666"
     borderopacity="1.0"
     inkscape:pageopacity="0.0"
     inkscape:pageshadow="2"
     inkscape:zoom="10.64"
     inkscape:cx="25.658501"
     inkscape:cy="11.062216"
     inkscape:document-units="px"
     inkscape:current-layer="layer1"
     showgrid="false"
     inkscape:window-width="1366"
     inkscape:window-height="709"
     inkscape:window-x="-8"
     inkscape:window-y="-8"
     inkscape:window-maximized="1" />
  <metadata
     id="metadata4022">
    <rdf:RDF>
      <cc:Work
         rdf:about="">
        <dc:format>image/svg+xml</dc:format>
        <dc:type
           rdf:resource="http://purl.org/dc/dcmitype/StillImage" />
        <dc:title></dc:title>
      </cc:Work>
    </rdf:RDF>
  </metadata>
  <g
     inkscape:label="Layer 1"
     inkscape:groupmode="layer"
     id="layer1"
     transform="translate(0,-1022.3622)">
    <path
       style="fill:#000000;stroke:#000000;stroke-width:0.84346520999999997px;stroke-linecap:butt;stroke-linejoin:miter;stroke-opacity:1"
       d="m 3.302123,1043.7074 c 1.0319002,0.4783 0.2743987,0.2612 4.6783022,1.2207 2.2019528,0.4798 3.4288178,5.8118 6.3978198,6.0331 1.444794,0.1077 1.435441,-0.6916 1.615325,-2.036 0.43254,-3.233 0.432636,-18.3834 0.198773,-21.4343 -0.16999,-2.2175 -0.412429,-3.4268 -2.015119,-3.3979 -1.658736,0.03 -3.625155,3.6773 -5.7219233,4.3932 -2.6579097,0.9073 -2.8240652,0.4879 -4.9901611,0.9762 -1.3637273,-0.1696 -1.3474121,13.696 -0.1630166,14.245 z"
       id="path4025"
       inkscape:connector-curvature="0"
       sodipodi:nodetypes="ssssssscs" />
    <path
       style="fill:none;stroke:#000000;stroke-width:1px;stroke-linecap:butt;stroke-linejoin:miter;stroke-opacity:1"
       d="m 17.293233,1030.1817 c 3.495784,3.3069 3.202535,10.5353 0.375943,13.6278"
       id="path4027"
       inkscape:connector-curvature="0"
       sodipodi:nodetypes="cc" />
    <path
       style="fill:none;stroke:#000000;stroke-width:1px;stroke-linecap:butt;stroke-linejoin:miter;stroke-opacity:1"
       d="m 18.645331,1028.631 c 7.349167,3.9648 6.679979,13.9187 -0.09398,17.951"
       id="path4027-4"
       inkscape:connector-curvature="0"
       sodipodi:nodetypes="cc" />
    <path
       style="fill:none;stroke:#000000;stroke-width:1px;stroke-linecap:butt;stroke-linejoin:miter;stroke-opacity:1"
       d="m 19.679165,1026.5633 c 8.007062,3.3069 10.439377,15.8924 -0.281952,22.9323"
       id="path4027-46"
       inkscape:connector-curvature="0"
       sodipodi:nodetypes="cc" />
    <path
       style="fill:#000000;stroke:#000000;stroke-width:0.84346521px;stroke-linecap:butt;stroke-linejoin:miter;stroke-opacity:1"
       d="m 33.302562,1043.6883 c 1.031901,0.4783 0.274399,0.2612 4.678303,1.2207 2.201952,0.4798 3.428817,5.8118 6.39782,6.0331 1.444794,0.1077 1.435441,-0.6916 1.615325,-2.036 0.43254,-3.233 0.432636,-18.3834 0.198773,-21.4343 -0.16999,-2.2175 -0.412429,-3.4268 -2.015119,-3.3979 -1.658736,0.03 -3.625156,3.6773 -5.721924,4.3932 -2.65791,0.9073 -2.824065,0.4879 -4.990161,0.9762 -1.363727,-0.1696 -1.347412,13.696 -0.163017,14.245 z"
       id="path4025-0"
       inkscape:connector-curvature="0"
       sodipodi:nodetypes="ssssssscs" />
    <path
       style="fill:none;stroke:#000000;stroke-width:1px;stroke-linecap:butt;stroke-linejoin:miter;stroke-opacity:1"
       d="m 47.874654,1027.4092 c 9.604806,19.8483 0.852911,1.4188 9.962409,20.5827"
       id="path4027-6"
       inkscape:connector-curvature="0"
       sodipodi:nodetypes="cc" />
    <path
       style="fill:none;stroke:#000000;stroke-width:1px;stroke-linecap:butt;stroke-linejoin:miter;stroke-opacity:1"
       d="m 58.265332,1027.597 c -10.322952,19.4844 -0.63952,1.5269 -10.703595,20.2071"
       id="path4027-6-6"
       inkscape:connector-curvature="0"
       sodipodi:nodetypes="cc" />
  </g>
</svg>
